<svg xmlns="http://www.w3.org/2000/svg" width="398.316" height="346.697" viewBox="0 0 398.316 346.697"><g id="Group_113398" data-name="Group 113398" transform="translate(-1249.402 -1904)"><g id="Group_112883" data-name="Group 112883"><g id="Group_112096" data-name="Group 112096" transform="translate(16.281 6.764)"><circle id="Ellipse_6071" data-name="Ellipse 6071" cx="137.692" cy="137.692" r="137.692" transform="translate(1245.378 1897.236)" fill="#e0e0e0"></circle><path id="Path_145348" data-name="Path 145348" d="M1191.014,751.278s9.705,2.53,10.715,10.617c.5,4.019-6.278,8-13.382,13.125-1.426,1.029-2.865,2.1-4.261,3.234Z" transform="translate(208.528 1292.695)" fill="#2e4faa"></path><g id="Group_112059" data-name="Group 112059" transform="translate(1176.092 1952.018)"><g id="Group_112057" data-name="Group 112057" transform="translate(57.029 49.29)"><path id="Path_145350" data-name="Path 145350" d="M742.14,637.266a1.016,1.016,0,0,1-.367-.069l-21.425-8.279a1.019,1.019,0,1,1,.734-1.9l21.425,8.279a1.019,1.019,0,0,1-.367,1.969Zm3.21-4.806a1.016,1.016,0,0,1-.776-.358c-5.159-6.057-10.31-11.787-15.312-17.031a1.019,1.019,0,0,1,1.474-1.406c5.028,5.272,10.205,11.03,15.389,17.116a1.019,1.019,0,0,1-.775,1.679Zm-46.06-11.753a1.015,1.015,0,0,1-.367-.069L677.5,612.359a1.019,1.019,0,0,1,.734-1.9l21.425,8.279a1.019,1.019,0,0,1-.367,1.969Zm-42.85-16.559a1.015,1.015,0,0,1-.367-.068L634.648,595.8a1.019,1.019,0,1,1,.734-1.9l21.425,8.279a1.019,1.019,0,0,1-.367,1.969Zm57.135-4.8a1.013,1.013,0,0,1-.682-.263c-5.9-5.326-11.845-10.2-17.668-14.488a1.019,1.019,0,0,1,1.208-1.641c5.877,4.327,11.874,9.245,17.824,14.616a1.019,1.019,0,0,1-.683,1.775ZM613.59,587.59a1.016,1.016,0,0,1-.367-.069L591.8,579.242a1.019,1.019,0,0,1,.734-1.9l21.425,8.279a1.019,1.019,0,0,1-.367,1.969Zm62.953-15.218a1.015,1.015,0,0,1-.492-.127,144.245,144.245,0,0,0-20.719-9.441,1.019,1.019,0,1,1,.691-1.917,146.3,146.3,0,0,1,21.014,9.574,1.019,1.019,0,0,1-.494,1.91Zm-105.8-1.341a1.016,1.016,0,0,1-.367-.069l-21.425-8.279a1.019,1.019,0,0,1,.735-1.9l21.425,8.279a1.019,1.019,0,0,1-.367,1.969Zm-73.147-.362a1.014,1.014,0,0,1-.121-.007,97.386,97.386,0,0,1-22.488-5.482,1.019,1.019,0,0,1,.71-1.91,95.36,95.36,0,0,0,22.017,5.368,1.019,1.019,0,0,1-.118,2.031Zm22.9-.155a1.019,1.019,0,0,1-.13-2.029,101.723,101.723,0,0,0,15.789-3.374c2.163-.642,4.316-1.264,6.4-1.848a1.019,1.019,0,1,1,.551,1.962c-2.072.581-4.214,1.2-6.368,1.84a103.787,103.787,0,0,1-16.107,3.441A1.048,1.048,0,0,1,520.494,570.514Zm44.621-10.771a1.019,1.019,0,0,1-.209-2.016c7.915-1.667,15.569-2.926,22.75-3.742a1.019,1.019,0,1,1,.23,2.024c-7.117.808-14.707,2.057-22.56,3.711A1.017,1.017,0,0,1,565.115,559.743Zm68.411-2.784a1.035,1.035,0,0,1-.178-.016,143.693,143.693,0,0,0-22.673-2.114,1.019,1.019,0,0,1,.031-2.037,145.734,145.734,0,0,1,23,2.145,1.019,1.019,0,0,1-.176,2.022Zm-178.723-1.9a1.015,1.015,0,0,1-.538-.154,146.189,146.189,0,0,1-18.533-13.8,1.019,1.019,0,0,1,1.338-1.536,144.174,144.174,0,0,0,18.273,13.611,1.019,1.019,0,0,1-.54,1.883Zm73.086-.586a1.017,1.017,0,0,1-.367-.069L506.1,546.124a1.019,1.019,0,0,1,.735-1.9l21.425,8.279a1.019,1.019,0,0,1-.367,1.969Zm-42.85-16.559a1.016,1.016,0,0,1-.367-.069l-21.425-8.279a1.019,1.019,0,1,1,.734-1.9l21.425,8.279a1.019,1.019,0,0,1-.367,1.969ZM420.1,525.18a1.017,1.017,0,0,1-.76-.34,224.5,224.5,0,0,1-14.442-18,1.019,1.019,0,1,1,1.651-1.193,222.486,222.486,0,0,0,14.311,17.836,1.019,1.019,0,0,1-.759,1.7Zm22.091-3.825a1.015,1.015,0,0,1-.367-.068L420.4,513.007a1.019,1.019,0,1,1,.734-1.9l21.425,8.279a1.019,1.019,0,0,1-.368,1.969Z" transform="translate(-404.703 -505.225)" fill="#fff"></path></g><g id="Group_112058" data-name="Group 112058" transform="translate(372.217 172.384)"><path id="Path_145351" data-name="Path 145351" d="M1803.408,1078.22a1.017,1.017,0,0,1-.809-.4l-6.968-9.1a1.019,1.019,0,0,1,1.612-1.246c2.3,2.945,4.645,6.011,6.979,9.114a1.019,1.019,0,0,1-.813,1.631Z" transform="translate(-1795.421 -1067.083)" fill="#fff"></path></g></g><path id="Path_145352" data-name="Path 145352" d="M1145.051,307.553s13.77-18.626,33.318-6.823,12.724,39.464,22.867,50.344,19.917,49.053-5.348,54.586-35.776,1.106-42.783,4.241-28.215,10.327-43.521-10.511-7.176-74.318,7.661-85.2S1145.051,307.553,1145.051,307.553Z" transform="translate(270.179 1631.418)" fill="#2a2628"></path><path id="Path_145353" data-name="Path 145353" d="M1227.489,618.324c-10.781,4.213-49.7,2.527-39.253-15.331,4.26-7.285,4.356-16.886,2.973-25.7a100.1,100.1,0,0,0-5.021-18.726c-1.194-3.23-2.1-5.2-2.1-5.2s31.412-12.662,33.854,3.712a15.708,15.708,0,0,1,.109,3.282c-.6,9.443,1.8,20.514,4.651,29.9a172.857,172.857,0,0,0,7.816,20.809S1238.272,614.114,1227.489,618.324Z" transform="translate(208.525 1443.676)" fill="#ffc09d"></path><path id="Path_145354" data-name="Path 145354" d="M1228.843,610.867c-13.833-.257-24.237-6.349-31.5-12.974a100.1,100.1,0,0,0-5.021-18.726c6.173-1.229,14.616-2.683,20.519-2.82a45.139,45.139,0,0,1,11.238,1.336,15.708,15.708,0,0,1,.109,3.282C1223.592,590.408,1225.993,601.479,1228.843,610.867Z" transform="translate(202.387 1423.081)" fill="#ff9b6c"></path><path id="Path_145355" data-name="Path 145355" d="M1219.3,465.731c-.29,14.417-4.969,46.831-17.956,46.831-16.719,0-31.6-12.541-36.513-38.481-5.174-27.306,8.284-16.453,23.246-13.27a33.979,33.979,0,0,0,5.276.728c16.845.862,22.745-2.458,25.2-2.582C1219.108,458.93,1219.389,461.586,1219.3,465.731Z" transform="translate(223.718 1512.776)" fill="#ffc09d"></path><path id="Path_145356" data-name="Path 145356" d="M1137.94,540.74s-11.378-6.22-11.87,1.648,6.481,17.4,18.854,14.971,4.873-16.077,4.5-16.077S1137.94,540.74,1137.94,540.74Z" transform="translate(251.787 1451.353)" fill="#ffc09d"></path><path id="Path_145357" data-name="Path 145357" d="M1199.154,931.622c-3.74-1.358-7.594-2.746-11.575-4.128-7.405-2.579-15.243-5.144-23.574-7.468a67.056,67.056,0,0,0-18.26-2.322c-19.364.036-39.9,6.759-59.808,11.745-10.028,2.513-19.895,4.583-29.37,5.131,6.472-13.015,8.952-24.114,9.07-33.991a66.844,66.844,0,0,0-2.456-18.463c-1.982-7.326-4.889-14.1-7.7-20.768-5.782-13.7-11.151-26.933-7.195-43.5,7.1-29.71,12.467-50.491,12.467-50.491s2.694-7.655,19.542-8.665c1.391-.082,3-.142,4.772-.178.621-.014,1.262-.022,1.922-.03-.044-.118-.085-.233-.123-.353-.9-2.921-1.853-3.764-.9-5.505.876-1.6,2.516-4.66,2.782-5.155.022-.044.035-.068.035-.068s.093-.011.269-.028c2.918-.29,28.828-2.779,36.181.028l.008,0c.115.044.224.09.334.137,4.671,2.042,4.873,7.739,3.721,12.04,9.3.419,16.029.794,16.029.794l21.565,20.555s2.716,38.273,7.425,71.645c2.894,20.5,6.538,39.154,10.77,45.949A121.732,121.732,0,0,1,1199.154,931.622Z" transform="translate(310.757 1296.566)" fill="#cb2027"></path><path id="Path_145358" data-name="Path 145358" d="M1090.676,1228.778a66.839,66.839,0,0,0-2.456-18.463c-1.982-7.326-4.889-14.1-7.7-20.768a21.259,21.259,0,0,1,7.967-2.924c12.131-2.023,25.7,11.558,25.7,11.558A175.553,175.553,0,0,0,1090.676,1228.778Z" transform="translate(285.719 968.377)" fill="#ad252b"></path><path id="Path_145359" data-name="Path 145359" d="M1030.186,929.747s-.222,62.856,42.144,53.575-64.635,23.5-64.635,23.5l-3.033-35.71Z" transform="translate(342.257 1159.679)" fill="#ad252b"></path><path id="Path_145360" data-name="Path 145360" d="M1198.167,866.851c.175-9.467.194-18.718.1-27.651-.29-27.842-1.695-52.6-3.126-71.194q-.255-3.346-.515-6.425-.16-1.905-.318-3.7-.107-1.285-.219-2.508-.115-1.3-.233-2.538c-.227-2.488-.449-4.769-.654-6.828a44.274,44.274,0,0,1,4.569-1.678l.3-.1a65.122,65.122,0,0,1,23.26-2.144,69.776,69.776,0,0,1,12.377,1.963,5.267,5.267,0,0,1,.887.3v.052c.016.468.118,4.019.29,8.739.09,2.412.194,5.125.315,7.89.189,4.178.411,8.47.662,11.994l.049.657c3.4,45.358,12.61,104.161,18.852,140.879-19.364.036-39.9,6.759-59.807,11.745C1196.852,906.164,1197.819,886.061,1198.167,866.851Z" transform="translate(201.733 1299.707)" fill="#fbfbfb"></path><path id="Path_145361" data-name="Path 145361" d="M1235.208,761.036c-13.716,4.821-30.911,2.527-40.578.548q-.16-1.905-.318-3.7-.107-1.285-.219-2.508-.115-1.3-.233-2.538c-.227-2.489-.449-4.769-.654-6.828,9.5-4.1,20.056-4.528,28.132-3.918,4.4.528,8.637,1.177,12.377,1.963a5.309,5.309,0,0,1,.887.3v.052c.016.468.118,4.019.29,8.739C1234.983,755.558,1235.087,758.271,1235.208,761.036Z" transform="translate(201.731 1299.705)" fill="#fff"></path><path id="Path_145362" data-name="Path 145362" d="M1219.8,741.275a50.716,50.716,0,0,1-11.9,5.549c-.041.014-.079.028-.12.038-14.989,4.742-30.539,2.423-40.912-.342a92.359,92.359,0,0,1-9.878-3.214c3.627-1.448,6.819-2.691,9.223-3.614,6.794-2.933,14.13-6.154,20.713-6.294a45.859,45.859,0,0,1,20.684,4.634C1208.892,738.365,1213.658,739.6,1219.8,741.275Z" transform="translate(228.723 1306.027)" fill="#ffc09d"></path><path id="Path_145363" data-name="Path 145363" d="M1847.37,802.938a6.253,6.253,0,0,1,.11-1.886,64.106,64.106,0,0,1,2.824-8.877c1.768-4.069,3.765-10.576,2.912-14.138s-2.018-4.868-.169-4.814,5.586,3.209,5.572,6.135-1.076,8.579-.251,8.8,4.855-1.72,7.387-1.6,6.629,1.286,7.069,2.113.643,2.925-.42,3.325c0,0,4.51,1.937,2.37,5,0,0,3.609,2.045,1.253,5.281,0,0,3.1,3.365.237,5.3s-4.334,1.415-5.485,3.094-7.6,4.909-8.816,5.45-5.146.9-8.227,5.627-11.605-7.394-11.585-9.155,2.417-5.234,4.164-7.543C1847.189,803.885,1847.389,803.267,1847.37,802.938Z" transform="translate(-281.941 1276.341)" fill="#ffc09d"></path><path id="Path_145364" data-name="Path 145364" d="M1303.827,1033.444c3.414-5.463,6.333-21.047,10.244-20.861s1.118,5.774,0,8.2-4.577,9.988-1.224,10.174Z" transform="translate(119.283 1097.941)" fill="#ffc09d"></path><path id="Path_145365" data-name="Path 145365" d="M1497.985,802.633c-6.018,7.671-34.246,42.3-59.819,50.825q-2.016.673-3.923,1.221c-13.951,4.033-23.708,3.444-29.759,2.026a22.187,22.187,0,0,1-7.7-3.072l-11.936-21.959-25.8-47.458-1.985-3.266-.05-.657c-.517-6.984-.892-13.642-1.1-19.845q-.148-4.562-.17-8.777v-.052c1.281.331,6.048,1.566,12.191,3.241,12.144,3.31,29.671,8.336,36.348,11.507.487.233.917.455,1.284.665a6.284,6.284,0,0,1,.892.635c8.719,7.249,26.369,50.045,26.369,50.045s40.261-19.758,49.813-30.542a2.222,2.222,0,0,1,3.285-.068l11.925,12.64A2.216,2.216,0,0,1,1497.985,802.633Z" transform="translate(80.587 1292.441)" fill="#cb2027"></path><g id="Group_112060" data-name="Group 112060" transform="translate(1433.295 2088.644)"><path id="Path_145366" data-name="Path 145366" d="M1372.387,983.543h-22.405a6.163,6.163,0,0,1-6.145-6.636l3.425-44.539a6.192,6.192,0,0,1,6.145-5.691h22.406a6.163,6.163,0,0,1,6.145,6.636l-3.425,44.54A6.192,6.192,0,0,1,1372.387,983.543Zm-18.98-54.829a4.145,4.145,0,0,0-4.114,3.81l-3.425,44.539a4.126,4.126,0,0,0,4.114,4.442h22.405a4.145,4.145,0,0,0,4.114-3.81l3.425-44.54a4.125,4.125,0,0,0-4.114-4.442Z" transform="translate(-1343.818 -926.677)" fill="#fff"></path></g><path id="Path_145367" data-name="Path 145367" d="M1356.845,1007.98h-22.406a5.144,5.144,0,0,1-5.13-5.539l3.425-44.54a5.145,5.145,0,0,1,5.13-4.75h22.406a5.145,5.145,0,0,1,5.13,5.539l-3.425,44.539A5.144,5.144,0,0,1,1356.845,1007.98Z" transform="translate(100.302 1142.235)" fill="#b1b1b1"></path><path id="Path_145368" data-name="Path 145368" d="M1255.659,1059.591c3.353.186,10.8-7.078,15.087-7.636s.931,4.54.931,4.54,2.173-.691,2.607,1.047a2.361,2.361,0,0,1-.433,2.452s2.076,1.149,1.056,2.887c0,0,1.107,2.152-.011,3.7s-2.224,6.726-12.594,10.638c-8.973,3.385-26.075,14.528-32.408,14.031-4.422-.347-5.151-7.777-5.188-12.229a5.064,5.064,0,0,1,2.834-4.592c4.87-2.388,14.77-7.6,17.317-11.676Z" transform="translate(178.254 1068.627)" fill="#ffc09d"></path><path id="Path_145369" data-name="Path 145369" d="M1562.732,1040.621c-13.951,4.033-23.708,3.444-29.759,2.026-1.982-14.055-3.614-28.981-4.835-41.55C1534.868,1013.252,1546.591,1030.656,1562.732,1040.621Z" transform="translate(-47.901 1106.5)" fill="#ad252b"></path><path id="Path_145370" data-name="Path 145370" d="M1012.9,844.545a3.994,3.994,0,0,1,5.286,2.8l4.093,16.864a4,4,0,0,1-3.061,4.851c-4.509.947-11.123,3.732-23.736,9.91-3.844,1.881-8.246,4.079-13.313,6.636a119.825,119.825,0,0,1-12.648,5.5c-23.018,8.468-43.861,7.978-47.5.06-4.172-9.081,9.774-96.115,17.294-108.286a5.5,5.5,0,0,1,.649-.882,11.778,11.778,0,0,1,1.065-.986c6.351-5.229,26.44-13.746,40.263-19.265,3.627-1.448,6.82-2.691,9.223-3.614.205,2.059.427,4.339.654,6.828q.119,1.236.233,2.538.111,1.224.219,2.508L988.2,783.361c-5.64,4.572-10.573,10.053-11.082,17.083-1.262,17.436-18.447,59.892-18.447,59.892,6.661-1.768,23.771-3.7,36.915-9.015,7.871-3.178,13.713-5.423,17.316-6.776Z" transform="translate(404.414 1287.586)" fill="#cb2027"></path><path id="Path_145371" data-name="Path 145371" d="M794.387,882.437c3.106,4.376,3.34,9.827,3.287,12.071a.806.806,0,0,1-1.056.749c-2.136-.691-7.2-2.711-10.31-7.087s-3.34-9.827-3.287-12.071a.806.806,0,0,1,1.055-.749C786.213,876.041,791.281,878.061,794.387,882.437Z" transform="translate(507.454 1200.251)" fill="#fff"></path><g id="Group_112061" data-name="Group 112061" transform="translate(1295.209 2068.777)"><path id="Path_145372" data-name="Path 145372" d="M810.906,874.29a1.9,1.9,0,0,1-1.188-.419c-1.781-1.417-6.082-5.31-7.543-10.844s.359-11.043,1.209-13.154a1.915,1.915,0,0,1,2.971-.784c1.781,1.417,6.082,5.309,7.543,10.844h0c1.461,5.534-.359,11.042-1.209,13.154a1.9,1.9,0,0,1-1.288,1.138A1.927,1.927,0,0,1,810.906,874.29Zm-5.613-23.206c-.808,2.129-2.185,6.783-.973,11.377s4.707,7.963,6.46,9.415c.808-2.129,2.185-6.783.973-11.377h0C810.54,855.906,807.046,852.537,805.293,851.084Z" transform="translate(-801.625 -848.671)" fill="#cb2027"></path></g><path id="Path_145373" data-name="Path 145373" d="M1558.066,199.752l1.06-8.32a1.223,1.223,0,0,1,2-.783l6.433,5.381a1.223,1.223,0,0,0,.63.275l8.32,1.06a1.223,1.223,0,0,1,.784,2l-5.381,6.433a1.223,1.223,0,0,0-.275.63l-1.061,8.32a1.223,1.223,0,0,1-2,.783l-6.433-5.381a1.222,1.222,0,0,0-.63-.275l-8.32-1.06a1.223,1.223,0,0,1-.784-2l5.381-6.433A1.224,1.224,0,0,0,1558.066,199.752Z" transform="translate(-65.777 1710.757)" fill="#cb2027"></path><g id="Group_112062" data-name="Group 112062" transform="translate(1381.888 1994.396)"><ellipse id="Ellipse_6072" data-name="Ellipse 6072" cx="4.212" cy="3.51" rx="4.212" ry="3.51" transform="translate(0 1.685) rotate(-11.541)" fill="#fff"></ellipse><path id="Path_145374" data-name="Path 145374" d="M1148.827,571.114l3.553,13.748a.919.919,0,0,1-1.766.507l-4.282-13.539a1.3,1.3,0,1,1,2.477-.783C1148.814,571.068,1148.821,571.093,1148.827,571.114Z" transform="translate(-1145.175 -566.695)" fill="#fff"></path></g><g id="Group_112063" data-name="Group 112063" transform="translate(1515.593 2158.58)"><path id="Path_145375" data-name="Path 145375" d="M1685.31,1237.983a18.35,18.35,0,1,1,18.35-18.35A18.371,18.371,0,0,1,1685.31,1237.983Zm0-34.481a16.131,16.131,0,1,0,16.131,16.131A16.15,16.15,0,0,0,1685.31,1203.5Z" transform="translate(-1666.96 -1201.283)" fill="#2a2628"></path></g><g id="Group_112064" data-name="Group 112064" transform="translate(1401.94 2069.93)"><path id="Path_145376" data-name="Path 145376" d="M1228.462,862.574a1.016,1.016,0,0,1-.75-.33l-6.738-7.339a1.019,1.019,0,0,1,1.5-1.378l6.738,7.339a1.019,1.019,0,0,1-.75,1.708Z" transform="translate(-1220.705 -853.198)" fill="#ad252b"></path></g><g id="Group_112065" data-name="Group 112065" transform="translate(1432.551 2205.473)"><path id="Path_145377" data-name="Path 145377" d="M1348.654,1394.781a1.016,1.016,0,0,1-.75-.33l-6.738-7.339a1.019,1.019,0,1,1,1.5-1.378l6.738,7.339a1.019,1.019,0,0,1-.75,1.708Z" transform="translate(-1340.897 -1385.405)" fill="#ad252b"></path></g><g id="Group_112066" data-name="Group 112066" transform="translate(1428.577 2163.982)"><path id="Path_145378" data-name="Path 145378" d="M1333.051,1231.868a1.016,1.016,0,0,1-.751-.33l-6.738-7.339a1.019,1.019,0,0,1,1.5-1.378l6.738,7.339a1.019,1.019,0,0,1-.75,1.708Z" transform="translate(-1325.294 -1222.491)" fill="#ad252b"></path></g><g id="Group_112067" data-name="Group 112067" transform="translate(1408.344 2184.471)"><path id="Path_145379" data-name="Path 145379" d="M1246.869,1314.769a1.006,1.006,0,0,1-.19-.018,1.019,1.019,0,0,1-.813-1.189l1.841-9.791a1.019,1.019,0,0,1,2,.377l-1.841,9.791A1.019,1.019,0,0,1,1246.869,1314.769Z" transform="translate(-1245.848 -1302.94)" fill="#ad252b"></path></g><g id="Group_112068" data-name="Group 112068" transform="translate(1422.56 2088.672)"><path id="Path_145380" data-name="Path 145380" d="M1302.684,938.1a1.019,1.019,0,0,1-.948-1.392l3.648-9.271a1.019,1.019,0,1,1,1.9.746l-3.647,9.271A1.02,1.02,0,0,1,1302.684,938.1Z" transform="translate(-1301.666 -926.788)" fill="#ad252b"></path></g><g id="Group_112069" data-name="Group 112069" transform="translate(1406.475 2119.835)"><path id="Path_145381" data-name="Path 145381" d="M1243.936,1060.123a1.019,1.019,0,0,1-.914-.568l-4.405-8.936a1.019,1.019,0,0,1,1.828-.9l4.405,8.936a1.019,1.019,0,0,1-.913,1.469Z" transform="translate(-1238.511 -1049.15)" fill="#ad252b"></path></g><g id="Group_112070" data-name="Group 112070" transform="translate(1343.736 2068.598)"><path id="Path_145382" data-name="Path 145382" d="M1014.966,872.75a1.123,1.123,0,0,1-.3.041,1.1,1.1,0,0,1-1.054-.8c-6-21.22-20.686-21.94-20.834-21.945a1.082,1.082,0,0,1-.613-.213,5.485,5.485,0,0,1,.649-.882,11.775,11.775,0,0,1,1.065-.986,21.543,21.543,0,0,1,8.084,3.088c4.432,2.754,10.417,8.517,13.757,20.344A1.1,1.1,0,0,1,1014.966,872.75Z" transform="translate(-992.166 -847.966)" fill="#ad252b"></path></g><g id="Group_112071" data-name="Group 112071" transform="translate(1472.754 2058.808)"><path id="Path_145383" data-name="Path 145383" d="M1513.046,810.826a1.093,1.093,0,0,1-.564.411,15.509,15.509,0,0,0-6.2,4.5c-3.961,4.569-5.774,11.31-5.248,19.492a1.092,1.092,0,0,1-1.021,1.163.619.619,0,0,1-.071,0,1.1,1.1,0,0,1-1.092-1.024c-.72-11.167,2.8-17.683,5.872-21.182a18.562,18.562,0,0,1,6.152-4.66c.487.233.917.455,1.284.665A6.277,6.277,0,0,1,1513.046,810.826Z" transform="translate(-1498.75 -809.526)" fill="#ad252b"></path></g><g id="Group_112072" data-name="Group 112072" transform="translate(1485.137 2191.886)"><path id="Path_145384" data-name="Path 145384" d="M1560.574,1365.25a1.02,1.02,0,0,1-.9-1.5c1.019-1.9.783-3.795-.72-5.8-6.844-9.137-11.349-23.953-11.538-24.579a1.019,1.019,0,1,1,1.951-.587c.045.15,4.593,15.1,11.218,23.944,2.49,3.324,1.855,6.177.884,7.986A1.018,1.018,0,0,1,1560.574,1365.25Z" transform="translate(-1547.376 -1332.058)" fill="#ad252b"></path></g><ellipse id="Ellipse_6073" data-name="Ellipse 6073" cx="2.13" cy="4.383" rx="2.13" ry="4.383" transform="translate(1404.333 1983.616)" fill="#2a2628"></ellipse><ellipse id="Ellipse_6074" data-name="Ellipse 6074" cx="2.13" cy="4.383" rx="2.13" ry="4.383" transform="translate(1427.56 1983.616)" fill="#2a2628"></ellipse><g id="Group_112073" data-name="Group 112073" transform="translate(1401.356 1979.268)"><path id="Path_145385" data-name="Path 145385" d="M1219.046,499.715a.636.636,0,0,1-.4-1.133,6.362,6.362,0,0,1,6.937-.552.637.637,0,1,1-.638,1.1,5.09,5.09,0,0,0-5.506.446A.635.635,0,0,1,1219.046,499.715Z" transform="translate(-1218.409 -497.214)" fill="#2a2628"></path></g><g id="Group_112074" data-name="Group 112074" transform="translate(1425.943 1979.878)"><path id="Path_145386" data-name="Path 145386" d="M1321.809,502.112a.635.635,0,0,1-.4-.138,5.088,5.088,0,0,0-5.506-.446.637.637,0,1,1-.638-1.1,6.363,6.363,0,0,1,6.937.551.637.637,0,0,1-.4,1.134Z" transform="translate(-1314.952 -499.611)" fill="#2a2628"></path></g><path id="Path_145387" data-name="Path 145387" d="M1284.35,542.038l3.263,12.77c.046.179-.154.343-.417.343h-4.558c-.246,0-.44-.143-.423-.312l1.295-12.77C1283.544,541.724,1284.263,541.7,1284.35,542.038Z" transform="translate(135.392 1448.826)" fill="#ff9b6c"></path><path id="Path_145388" data-name="Path 145388" d="M1252.771,611.825c1.944,1.04,7.288,3.543,12.659,2.9a.7.7,0,0,1,.534,1.231c-2.339,1.992-6.56,4.818-10.432,3.4-4.343-1.589-4.137-5.33-3.777-7.061A.7.7,0,0,1,1252.771,611.825Z" transform="translate(158.221 1396.694)" fill="#fff"></path><path id="Path_145389" data-name="Path 145389" d="M1290.636,474.4a37.048,37.048,0,0,0-11.2-.32c-7.958.84-15.309-2.062-20.023-4.6a33.976,33.976,0,0,0,5.275.728c16.845.862,22.745-2.458,25.2-2.582C1290.439,467.6,1290.721,470.259,1290.636,474.4Z" transform="translate(152.385 1504.103)" fill="#ff9b6c"></path><g id="Group_112075" data-name="Group 112075" transform="translate(1398.334 1964.83)"><path id="Path_145390" data-name="Path 145390" d="M1231.222,459.717a.637.637,0,0,1-.594-.408c-.076-.192-1.967-4.767-9.512-5.555-8.31-.868-14.248-11.829-14.5-12.3a.637.637,0,0,1,1.123-.6c.058.108,5.87,10.831,13.505,11.628,8.361.873,10.482,6.14,10.568,6.363a.637.637,0,0,1-.594.866Z" transform="translate(-1206.544 -440.522)" fill="#2a2628"></path></g><g id="Group_112076" data-name="Group 112076" transform="translate(1416.969 1921.68)"><path id="Path_145391" data-name="Path 145391" d="M1280.351,290.5a.637.637,0,0,1-.613-.808,34.149,34.149,0,0,1,5.377-10.483c5.089-6.614,11.833-9.261,19.5-7.658,18.258,3.817,21.74,12.166,21.879,12.52a.637.637,0,0,1-1.185.467c-.031-.078-3.453-8.081-20.955-11.74-7.248-1.516-13.376.893-18.211,7.16a33.5,33.5,0,0,0-5.182,10.078A.637.637,0,0,1,1280.351,290.5Z" transform="translate(-1279.714 -271.095)" fill="#15234c"></path></g><g id="Group_112077" data-name="Group 112077" transform="translate(1457.468 1958.259)"><path id="Path_145392" data-name="Path 145392" d="M1470.032,476.984a.654.654,0,0,1-.123-.012.637.637,0,0,1-.5-.747c.056-.287,5.452-28.779-8.072-32.483-6.079-1.665-11.73-6.928-16.8-15.642a75.124,75.124,0,0,1-5.774-12.54.637.637,0,0,1,1.209-.4c.078.236,7.936,23.584,21.7,27.353,6.122,1.677,9.607,8.13,10.079,18.66a73.833,73.833,0,0,1-1.093,15.3A.636.636,0,0,1,1470.032,476.984Z" transform="translate(-1438.733 -414.724)" fill="#15234c"></path></g><g id="Group_112078" data-name="Group 112078" transform="translate(1262.946 2221.332)"><path id="Path_145393" data-name="Path 145393" d="M676.98,1454.641a2.038,2.038,0,0,1-.383-4.038,205.209,205.209,0,0,1,32.564-2.925,2.037,2.037,0,0,1,.062,4.074,205.224,205.224,0,0,0-31.856,2.852A2.043,2.043,0,0,1,676.98,1454.641Z" transform="translate(-674.945 -1447.677)" fill="#cb2027"></path></g><g id="Group_112079" data-name="Group 112079" transform="translate(1329.592 2212.232)"><path id="Path_145394" data-name="Path 145394" d="M1168.826,1443.648c-14.539,0-30.373-5.758-49.638-12.763l-2.934-1.066c-3.387-1.23-7.408-2.681-11.549-4.12-8.741-3.044-16.193-5.4-23.453-7.43a64.4,64.4,0,0,0-17.708-2.247c-15.276.028-31.626,4.378-47.437,8.584-3.9,1.038-7.935,2.111-11.88,3.1-8.9,2.229-19.386,4.589-29.747,5.188a65.513,65.513,0,0,1-22.154-2.11,134.631,134.631,0,0,0-14.007-3.19,2.037,2.037,0,0,1,.7-4.015,138.766,138.766,0,0,1,14.432,3.288,61.556,61.556,0,0,0,20.793,1.959c10.025-.58,20.282-2.89,28.994-5.073,3.916-.981,7.935-2.05,11.822-3.085,16.063-4.273,32.672-8.692,48.477-8.721h.192a68.421,68.421,0,0,1,18.619,2.4c7.345,2.049,14.875,4.434,23.7,7.507,4.162,1.446,8.2,2.9,11.6,4.138l2.936,1.067c22.2,8.073,39.736,14.449,55.4,11.974a2.038,2.038,0,0,1,.636,4.025A49.772,49.772,0,0,1,1168.826,1443.648Z" transform="translate(-936.63 -1411.947)" fill="#cb2027"></path></g><path id="Path_145395" data-name="Path 145395" d="M1710.215,481.257,1624.3,463.266a15.74,15.74,0,0,0-18.632,12.18l-6.577,31.4a15.743,15.743,0,0,0,8.731,17.479l-7.243,18.136a3.1,3.1,0,0,0,4.531,3.77l26.228-16.551,65.846,13.789a15.74,15.74,0,0,0,18.632-12.18l6.577-31.405A15.74,15.74,0,0,0,1710.215,481.257Z" transform="translate(-100.534 1507.608)" fill="#fff"></path><g id="Group_112080" data-name="Group 112080" transform="translate(1507.075 1958.272)"><path id="Path_145396" data-name="Path 145396" d="M1642.778,502.241a4.208,4.208,0,0,1-2.355-.732,4.146,4.146,0,0,1-1.7-4.648l5.093-17.8a16.771,16.771,0,0,1-10.211-17.294l3.367-31.909a16.87,16.87,0,0,1,18.524-14.988l87.292,9.211a16.848,16.848,0,0,1,14.988,18.524l-3.367,31.909A16.84,16.84,0,0,1,1735.89,489.5l-66.456-7.012-24.067,18.842A4.187,4.187,0,0,1,1642.778,502.241Zm10.943-85.247a14.652,14.652,0,0,0-14.539,13.1L1635.815,462a14.566,14.566,0,0,0,9.716,15.343,1.109,1.109,0,0,1,.7,1.352l-5.372,18.776a1.989,1.989,0,0,0,3.139,2.114l24.42-19.119a1.112,1.112,0,0,1,.8-.23l66.9,7.06a14.651,14.651,0,0,0,16.086-13.015l3.366-31.909a14.63,14.63,0,0,0-13.015-16.085l-87.292-9.211A14.747,14.747,0,0,0,1653.722,416.994Z" transform="translate(-1633.514 -414.775)" fill="#cb2027"></path></g><g id="Group_112081" data-name="Group 112081" transform="translate(1522.751 1970.302)"><path id="Path_145397" data-name="Path 145397" d="M1702.525,483.52l-.079,0a1.109,1.109,0,0,1-.905-.6l-6.351-12.237a1.109,1.109,0,1,1,1.969-1.022l5.518,10.631,12.762-17.82a1.109,1.109,0,1,1,1.8,1.292l-13.815,19.291A1.109,1.109,0,0,1,1702.525,483.52Z" transform="translate(-1695.064 -462.01)"></path></g><path id="Path_145398" data-name="Path 145398" d="M1849.808,555.906l2.169-3.031a1.378,1.378,0,0,1,2.438.4l1.087,3.565a1.376,1.376,0,0,0,.9.912l3.553,1.127a1.378,1.378,0,0,1,.373,2.442l-3.056,2.135a1.379,1.379,0,0,0-.589,1.139l.027,3.727a1.377,1.377,0,0,1-2.207,1.109l-2.975-2.246a1.377,1.377,0,0,0-1.265-.208l-3.537,1.177a1.378,1.378,0,0,1-1.737-1.757l1.217-3.523a1.378,1.378,0,0,0-.194-1.267l-2.213-3a1.378,1.378,0,0,1,1.134-2.2l3.727.068A1.377,1.377,0,0,0,1849.808,555.906Z" transform="translate(-309.586 1498.885)" fill="#cb2027"></path><g id="Group_112082" data-name="Group 112082" transform="translate(1233.637 2046.913)"><path id="Path_145399" data-name="Path 145399" d="M617.965,876.238a140.946,140.946,0,0,1-42.245-48.71,139.13,139.13,0,0,1-15.855-64.708h4.075a136.112,136.112,0,0,0,56.408,110.113Z" transform="translate(-559.865 -762.82)" fill="#cb2027"></path></g><circle id="Ellipse_6075" data-name="Ellipse 6075" cx="50.349" cy="50.349" r="50.349" transform="translate(1246.372 1922.996)" fill="#fff"></circle><path id="Path_145400" data-name="Path 145400" d="M718.742,337.809s-7.128.846-8.187,1.228-2.557-.677-2.669-2.167,3.758-10.665,2.3-14.8-7.06-5.024-7.011-.232-4.358,11.872-6.042,13.3-7.114,12.843-7.114,12.843l-4.257.639-.127-.846a1.463,1.463,0,0,0-1.663-1.229l-13.591,2.039a1.463,1.463,0,0,0-1.23,1.664l3.587,23.907a1.463,1.463,0,0,0,1.663,1.23l13.591-2.039a1.463,1.463,0,0,0,1.23-1.663l-.1-.652a10.42,10.42,0,0,1,5.118,1.378l26.254-3.939c6.441-.967,2.794-6.67,2.794-6.67,3.935-3.158.278-7.074.278-7.074,5.125-3.783-.306-7.991-.306-7.991C727.866,338.729,718.742,337.809,718.742,337.809Z" transform="translate(592.332 1615.183)" fill="#cb2027"></path><g id="Group_112083" data-name="Group 112083" transform="translate(1237.678 1912.737)"><path id="Path_145401" data-name="Path 145401" d="M627.188,338.9a51.458,51.458,0,1,1,51.458-51.458A51.517,51.517,0,0,1,627.188,338.9Zm0-100.7a49.24,49.24,0,1,0,49.24,49.24A49.3,49.3,0,0,0,627.188,238.2Z" transform="translate(-575.73 -235.98)" fill="#cb2027"></path></g><g id="Group_112084" data-name="Group 112084" transform="translate(1270.182 2119.245)"><path id="Path_145402" data-name="Path 145402" d="M704.467,1072.438a1.109,1.109,0,0,1-.678-1.988l30.329-23.39a1.109,1.109,0,0,1,1.355,1.757l-30.328,23.39A1.106,1.106,0,0,1,704.467,1072.438Z" transform="translate(-703.357 -1046.83)" fill="#cb2027"></path></g><g id="Group_112085" data-name="Group 112085" transform="translate(1252.267 2149.492)"><path id="Path_145403" data-name="Path 145403" d="M634.123,1174.773a1.109,1.109,0,0,1-.678-1.988l9.023-6.959a1.109,1.109,0,0,1,1.355,1.757l-9.023,6.959A1.106,1.106,0,0,1,634.123,1174.773Z" transform="translate(-633.013 -1165.596)" fill="#cb2027"></path></g><g id="Group_112088" data-name="Group 112088" transform="translate(1358.029 1916.944)"><g id="Group_112086" data-name="Group 112086" transform="translate(6.453 0)"><path id="Path_145404" data-name="Path 145404" d="M1083.9,273.077a10.319,10.319,0,1,1,1.789-.155A10.429,10.429,0,0,1,1083.9,273.077Zm.033-18.542a8.251,8.251,0,1,0,6.739,13h0a8.249,8.249,0,0,0-6.739-13Z" transform="translate(-1073.626 -252.498)" fill="#fff"></path></g><g id="Group_112087" data-name="Group 112087" transform="translate(0 16.852)"><path id="Path_145405" data-name="Path 145405" d="M1049.307,335.485a1.019,1.019,0,0,1-.832-1.6l10.394-14.782a1.019,1.019,0,1,1,1.666,1.172l-10.394,14.782A1.017,1.017,0,0,1,1049.307,335.485Z" transform="translate(-1048.29 -318.666)" fill="#fff"></path></g></g><g id="Group_112089" data-name="Group 112089" transform="translate(1317.082 2085.969)"><path id="Path_145406" data-name="Path 145406" d="M888.529,977.854h-.039a1.019,1.019,0,0,1-.979-1.057c.835-22.115,12.231-59.524,12.345-59.9a1.019,1.019,0,1,1,1.948.6c-.114.373-11.433,37.53-12.258,59.379A1.019,1.019,0,0,1,888.529,977.854Z" transform="translate(-887.509 -916.176)" fill="#cb2027"></path></g><g id="Group_112090" data-name="Group 112090" transform="translate(1540.986 2109.503)"><path id="Path_145407" data-name="Path 145407" d="M1767.685,1043.84a1.019,1.019,0,0,1-.6-1.845c.262-.19,26.366-19.1,35.7-32.963a1.019,1.019,0,1,1,1.69,1.137c-9.534,14.171-35.11,32.7-36.195,33.479A1.015,1.015,0,0,1,1767.685,1043.84Z" transform="translate(-1766.665 -1008.582)" fill="#cb2027"></path></g><g id="Group_112091" data-name="Group 112091" transform="translate(1564.597 2091.274)"><path id="Path_145408" data-name="Path 145408" d="M1863.4,945.057a4.026,4.026,0,1,1,4.026-4.026A4.031,4.031,0,0,1,1863.4,945.057Zm0-6.015a1.989,1.989,0,1,0,1.988,1.989A1.991,1.991,0,0,0,1863.4,939.042Z" transform="translate(-1859.375 -937.005)" fill="#ad252b"></path></g><g id="Group_112092" data-name="Group 112092" transform="translate(1411.912 2146.188)"><path id="Path_145409" data-name="Path 145409" d="M1263.883,1160.675a4.026,4.026,0,1,1,4.026-4.026A4.031,4.031,0,0,1,1263.883,1160.675Zm0-6.015a1.989,1.989,0,1,0,1.989,1.989A1.991,1.991,0,0,0,1263.883,1154.661Z" transform="translate(-1259.857 -1152.623)" fill="#ad252b"></path></g><circle id="Ellipse_6076" data-name="Ellipse 6076" cx="10.443" cy="10.443" r="10.443" transform="translate(1276.307 2168.604)" fill="#e0e0e0"></circle><g id="Group_112093" data-name="Group 112093" transform="translate(1280.06 2171.743)"><path id="Path_145410" data-name="Path 145410" d="M753.606,1275.891a11.462,11.462,0,1,1,11.462-11.462A11.475,11.475,0,0,1,753.606,1275.891Zm0-20.887a9.425,9.425,0,1,0,9.425,9.425A9.435,9.435,0,0,0,753.606,1255Z" transform="translate(-742.144 -1252.967)" fill="#cb2027"></path></g><g id="Group_112094" data-name="Group 112094" transform="translate(1433.276 2119.903)"><path id="Path_145411" data-name="Path 145411" d="M1351.024,1076a.637.637,0,0,1-.225-1.233c8.474-3.2,10.557-7.184,11.677-9.326a9.385,9.385,0,0,1,.625-1.088c.872-1.211-.031-3.024-.04-3.042a.639.639,0,0,1,.018-.612,1.124,1.124,0,0,0,.16-.888,2.223,2.223,0,0,0-.977-1.121.638.638,0,0,1-.094-1.047c.009-.009.541-.522.219-1.806a.8.8,0,0,0-.385-.558,2.116,2.116,0,0,0-1.414-.036.637.637,0,0,1-.723-.957c.646-.986,1.427-2.724,1.051-3.324-.153-.244-.652-.33-1.368-.236-1.966.257-4.783,2.119-7.507,3.92-2.976,1.968-5.782,3.828-7.7,3.721a.637.637,0,0,1,.071-1.271c1.484.076,4.252-1.744,6.925-3.511,2.844-1.881,5.786-3.826,8.045-4.12,1.285-.169,2.165.109,2.612.823.626,1,.095,2.524-.43,3.583a2.511,2.511,0,0,1,1.054.3,2.085,2.085,0,0,1,1,1.363,3.465,3.465,0,0,1-.169,2.455,3.08,3.08,0,0,1,1.012,1.488,2.325,2.325,0,0,1-.133,1.569,4.319,4.319,0,0,1-.2,4.058,8.739,8.739,0,0,0-.53.933c-1.2,2.293-3.428,6.56-12.357,9.928A.642.642,0,0,1,1351.024,1076Z" transform="translate(-1343.744 -1049.414)" fill="#ff9b6c"></path></g><g id="Group_112095" data-name="Group 112095" transform="translate(1373.078 2131.112)"><path id="Path_145412" data-name="Path 145412" d="M1108.4,1109.053a1.019,1.019,0,0,1-.187-2.02c8.73-1.64,17.887-3.593,25.71-6.754,8.036-3.245,13.865-5.481,17.34-6.785a1.019,1.019,0,0,1,.716,1.908c-3.463,1.3-9.275,3.529-17.292,6.766-7.988,3.228-17.263,5.208-26.1,6.867A1.023,1.023,0,0,1,1108.4,1109.053Z" transform="translate(-1107.378 -1093.429)" fill="#ad252b"></path></g><path id="Path_143187" data-name="Path 143187" d="M4.128,55.862v2.147a.508.508,0,0,0,.156.393.614.614,0,0,0,.434.145h2.47v1.127H4.343a1.671,1.671,0,0,1-.628-.113,1.506,1.506,0,0,1-.491-.312,1.382,1.382,0,0,1-.322-.461,1.427,1.427,0,0,1-.112-.564V55.646a1.427,1.427,0,0,1,.109-.564,1.382,1.382,0,0,1,.322-.461,1.506,1.506,0,0,1,.491-.312A1.671,1.671,0,0,1,4.34,54.2H7.188V55l-.322.322H4.718a.614.614,0,0,0-.434.145A.508.508,0,0,0,4.128,55.862Zm3.222-.323a1.422,1.422,0,0,1,.112-.563,1.4,1.4,0,0,1,.322-.462,1.538,1.538,0,0,1,.491-.312A1.7,1.7,0,0,1,8.9,54.09h1.828a1.7,1.7,0,0,1,.629.112,1.549,1.549,0,0,1,.491.312,1.376,1.376,0,0,1,.321.462,1.406,1.406,0,0,1,.115.563V58.33a1.407,1.407,0,0,1-.113.564,1.376,1.376,0,0,1-.321.462,1.532,1.532,0,0,1-.493.31,1.7,1.7,0,0,1-.628.112H8.9a1.7,1.7,0,0,1-.625-.112,1.522,1.522,0,0,1-.491-.312,1.4,1.4,0,0,1-.322-.462,1.424,1.424,0,0,1-.112-.564Zm3.6,2.578V55.757a.514.514,0,0,0-.155-.393.615.615,0,0,0-.434-.144H9.282a.613.613,0,0,0-.434.144.511.511,0,0,0-.156.393v2.359a.511.511,0,0,0,.156.393.613.613,0,0,0,.434.144h1.074a.615.615,0,0,0,.434-.144.514.514,0,0,0,.155-.393Zm6.712-5.96v7.517h-.913l-.161-.645h-.107a1.607,1.607,0,0,1-.312.376,1.9,1.9,0,0,1-.393.263,1.172,1.172,0,0,1-.527.112h-.966a1.7,1.7,0,0,1-.628-.112,1.527,1.527,0,0,1-.491-.312,1.4,1.4,0,0,1-.323-.462,1.424,1.424,0,0,1-.112-.564V55.646a1.427,1.427,0,0,1,.111-.564,1.385,1.385,0,0,1,.323-.461,1.512,1.512,0,0,1,.491-.312,1.681,1.681,0,0,1,.628-.113h2.04v-2.04Zm-1.343,3.168H14.651a.614.614,0,0,0-.435.145.507.507,0,0,0-.155.393v2.255a.51.51,0,0,0,.155.393.614.614,0,0,0,.435.144h.8a.77.77,0,0,0,.386-.091,1.092,1.092,0,0,0,.269-.209,1.432,1.432,0,0,0,.2-.29Zm6.872.214v1.933H19.7v.537a.507.507,0,0,0,.155.393.614.614,0,0,0,.435.145h2.684v1.127H19.911a1.681,1.681,0,0,1-.628-.113,1.512,1.512,0,0,1-.491-.312,1.385,1.385,0,0,1-.323-.461,1.427,1.427,0,0,1-.112-.564V55.538a1.422,1.422,0,0,1,.112-.563,1.4,1.4,0,0,1,.323-.462,1.545,1.545,0,0,1,.491-.312,1.7,1.7,0,0,1,.628-.112h1.718a1.7,1.7,0,0,1,.628.112,1.549,1.549,0,0,1,.491.312,1.4,1.4,0,0,1,.322.462A1.422,1.422,0,0,1,23.187,55.538Zm-3.489.215v.59h2.148v-.59a.511.511,0,0,0-.156-.393.613.613,0,0,0-.434-.144h-.966a.614.614,0,0,0-.435.144.51.51,0,0,0-.155.393Zm5.422,3.92H23.779V54.2h.912l.161.645h.107a1.583,1.583,0,0,1,.312-.376,1.867,1.867,0,0,1,.393-.263,1.167,1.167,0,0,1,.526-.112h.967a1.7,1.7,0,0,1,.628.112,1.56,1.56,0,0,1,.491.312,1.376,1.376,0,0,1,.321.462,1.406,1.406,0,0,1,.12.563v4.135H27.375v-3.92a.514.514,0,0,0-.155-.393.617.617,0,0,0-.434-.144h-.806a.77.77,0,0,0-.386.091,1.2,1.2,0,0,0-.268.2,1.671,1.671,0,0,0-.2.3ZM30.812,52v1.5H29.469V52Zm0,2.2v5.476H29.469V54.2Zm2.093,5.471H31.563V54.2h.913l.161.645h.107a1.583,1.583,0,0,1,.312-.376,1.867,1.867,0,0,1,.393-.263,1.167,1.167,0,0,1,.526-.112h.974a1.693,1.693,0,0,1,.628.112,1.554,1.554,0,0,1,.491.312,1.4,1.4,0,0,1,.434,1.025v4.135H35.16v-3.92A.511.511,0,0,0,35,55.36a.613.613,0,0,0-.434-.144h-.8a.77.77,0,0,0-.386.091,1.2,1.2,0,0,0-.268.2,1.671,1.671,0,0,0-.2.3Z" transform="translate(1547.689 1945.367)"></path><path id="Path_143188" data-name="Path 143188" d="M344.827,54.2h1.343v5.853a1.41,1.41,0,0,1-.113.563,1.376,1.376,0,0,1-.321.462,1.549,1.549,0,0,1-.491.312,1.7,1.7,0,0,1-.628.112h-.966V60.371h.59a.615.615,0,0,0,.434-.144.514.514,0,0,0,.155-.393ZM346.17,52v1.5h-1.343V52Zm5.316,7.673h-.913l-.161-.645H350.3a1.6,1.6,0,0,1-.312.376,1.894,1.894,0,0,1-.393.263,1.172,1.172,0,0,1-.527.112h-.858a1.693,1.693,0,0,1-.628-.112,1.521,1.521,0,0,1-.491-.312,1.388,1.388,0,0,1-.434-1.026v-.59a1.4,1.4,0,0,1,.112-.563,1.384,1.384,0,0,1,.322-.462,1.521,1.521,0,0,1,.491-.312,1.692,1.692,0,0,1,.628-.113h1.932v-.376a.521.521,0,0,0-.59-.59h-2.421V54.2h2.792a1.683,1.683,0,0,1,.628.113,1.522,1.522,0,0,1,.491.312,1.368,1.368,0,0,1,.322.461,1.428,1.428,0,0,1,.113.564Zm-2.2-1.02a.77.77,0,0,0,.386-.091,1.092,1.092,0,0,0,.269-.209,1.476,1.476,0,0,0,.2-.29v-.644h-1.613a.5.5,0,0,0-.537.537v.161a.5.5,0,0,0,.537.537Z" transform="translate(1240.33 1945.367)"></path><g id="Group_110708" data-name="Group 110708" transform="translate(1589.61 1992.382)"><path id="Path_143189" data-name="Path 143189" d="M404.814,4.738l-2.6-.857,2.6-.883L405.4,1.28,400.94,3.062V4.676l4.444,1.743ZM406.553,3l2.6.882-2.6.856L406,6.41l4.421-1.735V3.062L405.99,1.289Z" transform="translate(-400.94 -1.28)" fill="#cb2027"></path></g></g></g></g></svg>